<?xml version="1.0" encoding="UTF-8" standalone="no"?>
<svg
   xmlns:dc="http://purl.org/dc/elements/1.1/"
   xmlns:cc="http://creativecommons.org/ns#"
   xmlns:rdf="http://www.w3.org/1999/02/22-rdf-syntax-ns#"
   xmlns:svg="http://www.w3.org/2000/svg"
   xmlns="http://www.w3.org/2000/svg"
   version="1.1"
   id="svg4215"
   viewBox="0 0 20 20"
   height="5.6444445mm"
   width="5.6444445mm">
  <defs
     id="defs4217" />
  <metadata
     id="metadata4220">
    <rdf:RDF>
      <cc:Work
         rdf:about="">
        <dc:format>image/svg+xml</dc:format>
        <dc:type
           rdf:resource="http://purl.org/dc/dcmitype/StillImage" />
        <dc:title></dc:title>
      </cc:Work>
    </rdf:RDF>
  </metadata>
  <g
     transform="translate(0,-1032.3622)"
     id="layer1">
    <path
       id="path4223"
       transform="translate(0,1032.3622)"
       d="M 10 0 A 10 10 0 0 0 0 10 A 10 10 0 0 0 10 20 A 10 10 0 0 0 20 10 A 10 10 0 0 0 10 0 z M 5.4882812 2.7246094 L 10.048828 7.2695312 L 14.580078 2.7382812 L 17.294922 5.4707031 L 12.763672 10 L 17.339844 14.576172 L 14.548828 17.367188 L 9.9746094 12.791016 L 5.4433594 17.322266 L 2.7265625 14.591797 L 7.2578125 10.060547 L 2.6972656 5.515625 L 5.4882812 2.7246094 z "
       style="fill:#d2d2d2;fill-opacity:1;stroke:none" />
  </g>
</svg>
